<svg id="Layer_1" enable-background="new 0 0 512 512" height="512" viewBox="0 0 512 512" width="512" xmlns="http://www.w3.org/2000/svg"><g><g clip-rule="evenodd" fill-rule="evenodd"><path d="m89.831 6.548c49.635 0 89.831 30.615 89.831 68.345 0 30.586-26.362 56.467-62.76 65.197l-23.329 31.352c-2.608 3.516-4.649 3.77-7.455 0l-23.33-31.352c-36.397-8.731-62.788-34.611-62.788-65.197 0-37.73 40.224-68.345 89.831-68.345z" fill="#fff9df"/><path d="m251.776 252.712h254.242c3.288 0 5.981-2.693 5.981-6.01v-234.144c0-3.316-2.693-6.01-5.981-6.01h-254.242c-3.288 0-5.981 2.693-5.981 6.01v234.145c0 3.316 2.693 6.009 5.981 6.009z" fill="#f4fbff"/><path d="m281.654 221.928h33.506c3.288 0 5.981-2.693 5.981-5.981v-102.503c0-3.316-2.693-6.01-5.981-6.01h-33.506c-3.316 0-6.01 2.693-6.01 6.01v102.502c.001 3.288 2.694 5.982 6.01 5.982z" fill="#fc7070"/><path d="m362.158 52.441h33.478c3.316 0 6.01 2.693 6.01 6.01v157.495c0 3.288-2.693 5.981-6.01 5.981h-33.478c-3.316 0-6.009-2.693-6.009-5.981v-157.495c0-3.316 2.693-6.01 6.009-6.01z" fill="#b3e59f"/><path d="m442.635 82.433h33.507c3.316 0 6.01 2.693 6.01 6.01v127.504c0 3.288-2.693 5.981-6.01 5.981h-33.507c-3.288 0-5.98-2.693-5.98-5.981v-127.505c-.001-3.316 2.692-6.009 5.98-6.009z" fill="#90d8f9"/><path d="m245.795 134.959c68.203 0 123.506 55.276 123.506 123.479 0 46.149-25.313 86.401-62.815 107.577-5.811 3.288-9.185 7.823-9.185 14.712v30.217l-50.258 9.752-52.753-9.752v-30.217c0-6.549-3.686-11.594-9.242-14.712-37.475-21.232-62.759-61.428-62.759-107.577 0-68.203 55.304-123.479 123.506-123.479z" fill="#ffe07d"/><path d="m245.795 134.959c68.203 0 123.506 55.276 123.506 123.479 0 46.149-25.313 86.401-62.815 107.577-5.811 3.288-9.185 7.823-9.185 14.712v30.217h-30.019v-30.217c0-6.889 3.373-11.424 9.212-14.712 37.476-21.176 62.789-61.428 62.789-107.577 0-63.128-47.368-115.173-108.484-122.571 4.905-.596 9.922-.908 14.996-.908z" fill="#ffd064"/><path d="m297.301 453.946c0 28.46-23.074 51.506-51.505 51.506-28.46 0-51.506-23.046-51.506-51.506l53.518-5.982z" fill="#b1e4f9"/><path d="m297.301 453.946c0 28.46-23.074 51.506-51.505 51.506-5.216 0-10.261-.766-14.996-2.211 21.119-6.436 36.483-26.051 36.483-49.295z" fill="#90d8f9"/></g><path d="m253.279 369.699v41.244h-14.996v-41.244l-57.232-111.998-2.494 1.445c-3.543 2.098-8.136.907-10.205-2.664-2.098-3.544-.907-8.136 2.665-10.205l23.669-13.862c2.438-1.445 5.386-1.304 7.654.058l19.786 11.594 19.872-11.651c2.466-1.445 5.414-1.304 7.682.058l19.786 11.594 19.871-11.651c2.466-1.445 5.414-1.304 7.682.058l23.557 13.805c3.543 2.069 4.763 6.661 2.665 10.205-2.098 3.571-6.662 4.762-10.233 2.664l-2.466-1.445zm-54.823-122.175-4.507 2.637 51.846 101.396 51.817-101.396-4.479-2.637-19.786 11.565c-2.268 1.389-5.215 1.502-7.682.057l-19.871-11.622-19.786 11.565c-2.268 1.389-5.216 1.502-7.682.057z" fill="#ffc250"/><path clip-rule="evenodd" d="m194.29 410.943h103.011v43.003h-103.011z" fill="#365e7d" fill-rule="evenodd"/><path clip-rule="evenodd" d="m267.282 410.943h30.019v43.003h-30.019z" fill="#2b4d66" fill-rule="evenodd"/><path d="m56.042 82.404c-4.139 0-7.483-3.345-7.483-7.512 0-4.139 3.345-7.483 7.483-7.483h67.579c4.139 0 7.512 3.345 7.512 7.483 0 4.167-3.373 7.512-7.512 7.512zm0 28.631c-4.139 0-7.483-3.346-7.483-7.484 0-4.139 3.345-7.512 7.483-7.512h50.401c4.139 0 7.512 3.373 7.512 7.512s-3.373 7.484-7.512 7.484zm0-57.261c-4.139 0-7.483-3.373-7.483-7.512s3.345-7.512 7.483-7.512h67.579c4.139 0 7.512 3.373 7.512 7.512s-3.373 7.512-7.512 7.512z" fill="#b3e59f"/><path d="m131.189 439.942h-59.783c-13.068 0-24.946-5.329-33.535-13.946-8.617-8.59-13.946-20.467-13.946-33.534v-222.523c0-4.139 3.345-7.483 7.483-7.483s7.512 3.345 7.512 7.483v222.522c0 8.929 3.657 17.036 9.553 22.933 5.896 5.896 14.003 9.553 22.933 9.553h59.783l-11.48-11.452c-2.919-2.948-2.919-7.683 0-10.602 2.92-2.947 7.682-2.947 10.602 0l24.265 24.266c2.948 2.919 2.948 7.682 0 10.602l-24.265 24.265c-2.92 2.92-7.682 2.92-10.602 0-2.919-2.919-2.919-7.682 0-10.602z" fill="#365e7d"/><path d="m341.522 440.452c-4.139 0-7.483-3.345-7.483-7.483 0-4.167 3.345-7.512 7.483-7.512h77.868c8.93 0 17.065-3.656 22.961-9.553 5.896-5.896 9.553-14.032 9.553-22.961v-69.393l-11.48 11.48c-2.92 2.919-7.653 2.919-10.602 0-2.92-2.948-2.92-7.683 0-10.63l24.265-24.266c2.948-2.919 7.682-2.919 10.602 0l24.294 24.266c2.92 2.947 2.92 7.682 0 10.63-2.948 2.919-7.682 2.919-10.63 0l-11.453-11.48v69.393c0 13.067-5.329 24.945-13.946 33.563-8.617 8.617-20.494 13.946-33.563 13.946z" fill="#365e7d"/></g></svg>